<svg xmlns="http://www.w3.org/2000/svg" viewBox="0 0 489.45 454.08"><g id="freepik--Floor--inject-211"><path id="freepik--floor--inject-211" d="M77.66,234.92c-95.18,55-95.17,144,0,199s249.49,54.95,344.67,0,95.17-144,0-199S172.84,180,77.66,234.92Z" transform="translate(-4.27 -21.05)" style="fill:#fafafa"></path></g><g id="freepik--Rice--inject-211"><g id="freepik--rice--inject-211"><path d="M90.08,68.38c-.91.22-1.08,5-.11,9s1.91,5.82,3.61,5.41,1.69-2.5.72-6.47S91,68.15,90.08,68.38Z" transform="translate(-4.27 -21.05)" style="fill:#f5f5f5"></path><path d="M133.79,36c1.12-1.35-.13-3-3.26-5.62s-7.5-4.56-8.09-3.84,2.1,4.65,5.23,7.26S132.67,37.35,133.79,36Z" transform="translate(-4.27 -21.05)" style="fill:#f5f5f5"></path><path d="M78.43,117.64c-1.26,1.21-.2,3,2.63,5.94s6.94,5.36,7.62,4.71-1.58-4.85-4.41-7.8S79.7,116.42,78.43,117.64Z" transform="translate(-4.27 -21.05)" style="fill:#f5f5f5"></path><path d="M70.47,44.45A2.58,2.58,0,1,0,73.05,47,2.59,2.59,0,0,0,70.47,44.45Z" transform="translate(-4.27 -21.05)" style="fill:#f5f5f5"></path><path d="M134.37,91.51c-2.83,2.94-5.08,7.15-4.41,7.8s4.8-1.77,7.62-4.71,3.89-4.73,2.63-5.95S137.2,88.57,134.37,91.51Z" transform="translate(-4.27 -21.05)" style="fill:#f5f5f5"></path><path d="M141.18,60.42A2.58,2.58,0,1,0,143.75,63,2.58,2.58,0,0,0,141.18,60.42Z" transform="translate(-4.27 -21.05)" style="fill:#f5f5f5"></path><path d="M31.54,90c1.7.41,2.65-1.44,3.62-5.4s.8-8.74-.11-9-3.26,3.93-4.23,7.9S29.84,89.53,31.54,90Z" transform="translate(-4.27 -21.05)" style="fill:#f5f5f5"></path><path d="M34.58,186.44c-.52-.78-5,.72-8.43,3s-4.79,3.82-3.81,5.27,2.93.71,6.31-1.57S35.1,187.21,34.58,186.44Z" transform="translate(-4.27 -21.05)" style="fill:#f5f5f5"></path><path d="M176.64,58.25c-1.55.83-1,2.84.9,6.44s5.22,7,6.05,6.61-.19-5.1-2.11-8.7S178.19,57.43,176.64,58.25Z" transform="translate(-4.27 -21.05)" style="fill:#f5f5f5"></path><path d="M55.18,203.83c-.92-.13-2.82,4.25-3.36,8.3s-.35,6.11,1.39,6.35,2.48-1.71,3-5.76S56.11,204,55.18,203.83Z" transform="translate(-4.27 -21.05)" style="fill:#f5f5f5"></path><path d="M25.5,241.15c-1.25,1.23-.17,3,2.68,5.92s7,5.29,7.67,4.63-1.62-4.84-4.48-7.75S26.75,239.92,25.5,241.15Z" transform="translate(-4.27 -21.05)" style="fill:#f5f5f5"></path><path d="M49.33,115.81a2.58,2.58,0,1,0,2.48,2.67A2.58,2.58,0,0,0,49.33,115.81Z" transform="translate(-4.27 -21.05)" style="fill:#f5f5f5"></path><path d="M52.31,21.28c-.5-.8-5.08.54-8.54,2.7s-4.93,3.64-4,5.13,2.9.82,6.36-1.35S52.8,22.07,52.31,21.28Z" transform="translate(-4.27 -21.05)" style="fill:#f5f5f5"></path><path d="M425.42,99.13c.57.75,5-1,8.25-3.49s4.57-4.08,3.51-5.47-3-.55-6.21,1.93S424.86,98.39,425.42,99.13Z" transform="translate(-4.27 -21.05)" style="fill:#f5f5f5"></path><path d="M427.53,48c.94-.08,1.81-4.77,1.44-8.84s-1-6-2.77-5.88-2,2.22-1.67,6.29S426.6,48.07,427.53,48Z" transform="translate(-4.27 -21.05)" style="fill:#f5f5f5"></path><path d="M434.17,153c-3.38,2.29-4.79,3.82-3.8,5.27s2.92.71,6.3-1.58,6.46-5.93,5.94-6.71S437.55,150.69,434.17,153Z" transform="translate(-4.27 -21.05)" style="fill:#f5f5f5"></path><path d="M468.05,122.14a2.58,2.58,0,1,0,2.57,2.58A2.57,2.57,0,0,0,468.05,122.14Z" transform="translate(-4.27 -21.05)" style="fill:#f5f5f5"></path><path d="M445.2,193c-.93-.12-2.82,4.26-3.37,8.3s-.34,6.12,1.4,6.35,2.48-1.71,3-5.75S446.12,193.15,445.2,193Z" transform="translate(-4.27 -21.05)" style="fill:#f5f5f5"></path><path d="M476.22,181.09c-3.13-2.62-7.49-4.56-8.09-3.84s2.1,4.65,5.24,7.26,5,3.55,6.12,2.2S479.36,183.7,476.22,181.09Z" transform="translate(-4.27 -21.05)" style="fill:#f5f5f5"></path><path d="M475.67,53.91c.6-.72-2.1-4.65-5.23-7.26s-5-3.55-6.12-2.2.13,3,3.26,5.62S475.08,54.63,475.67,53.91Z" transform="translate(-4.27 -21.05)" style="fill:#f5f5f5"></path><path d="M461.34,73a2.58,2.58,0,1,0,2.57,2.58A2.58,2.58,0,0,0,461.34,73Z" transform="translate(-4.27 -21.05)" style="fill:#f5f5f5"></path><path d="M395.26,112.64a2.58,2.58,0,1,0,2.58,2.57A2.58,2.58,0,0,0,395.26,112.64Z" transform="translate(-4.27 -21.05)" style="fill:#f5f5f5"></path><path d="M347.83,36.39c-1.06-1.4-3-.55-6.2,1.93s-6.12,6.29-5.55,7,5-1,8.25-3.49S348.9,37.78,347.83,36.39Z" transform="translate(-4.27 -21.05)" style="fill:#f5f5f5"></path><path d="M308.49,156.91c-1.55.82-1,2.83.86,6.44s5.18,7.08,6,6.65-.16-5.1-2.06-8.72S310,156.1,308.49,156.91Z" transform="translate(-4.27 -21.05)" style="fill:#f5f5f5"></path><path d="M335.58,128.56c-2,3.54-2.64,5.53-1.12,6.41s2.94-.64,5-4.18,3.21-8.16,2.4-8.63S337.62,125,335.58,128.56Z" transform="translate(-4.27 -21.05)" style="fill:#f5f5f5"></path><path d="M184.28,23.26c-3.44-2.2-5.4-2.9-6.35-1.42s.5,3,3.93,5.18,8,3.6,8.51,2.81S187.71,25.47,184.28,23.26Z" transform="translate(-4.27 -21.05)" style="fill:#f5f5f5"></path><path d="M343.6,82.64c-1.27,1.22-.21,3,2.62,6s6.95,5.36,7.62,4.71-1.57-4.86-4.4-7.8S344.86,81.43,343.6,82.64Z" transform="translate(-4.27 -21.05)" style="fill:#f5f5f5"></path><path d="M387,56.33c-.91-.22-3.26,3.93-4.23,7.9s-1,6,.72,6.46,2.65-1.44,3.62-5.4S387.92,56.55,387,56.33Z" transform="translate(-4.27 -21.05)" style="fill:#f5f5f5"></path></g></g><g id="freepik--Shadows--inject-211"><path id="freepik--shadows--inject-211" d="M265.89,273.21c6.63,7.62,16.93,13,26.38,16.19A61.5,61.5,0,0,0,322.74,292a33.17,33.17,0,0,0,13.1-5.12c4.15-2.85,5.08-6.47,2.28-10.93-3.14-5-8-8.68-13.05-11.81A125.35,125.35,0,0,0,296,250.94c-10.46-3.21-22-6-32.69-2.19a10.52,10.52,0,0,0-4.51,2.76C253.79,257.29,262.1,268.85,265.89,273.21Z" transform="translate(-4.27 -21.05)" style="fill:#e0e0e0"></path><path id="freepik--Shadow--inject-211" d="M229.73,338.67c-3.21,2.25-6.78,4.6-5.44,8.8.81,2.52,4.55,5,7.22,6.14a86.66,86.66,0,0,0,23.32,6.74A36.93,36.93,0,0,0,248,373.89c-1.1,4.15-1.37,8.88,1,12.44,4.19,6.27,13.52,8.1,20.27,8.89,12,1.42,25.26.6,36.76-3.13s22-11.71,26.7-22.87a18.57,18.57,0,0,0,1.47-5.46c.61-7.17-5.11-12.54-9.61-17.42a80.05,80.05,0,0,0-16.8-14.08c-9.43-5.82-20.37-9.35-31.49-9.1s-21.19,3.94-31.42,7.82C238.52,333.41,235.36,334.72,229.73,338.67Z" transform="translate(-4.27 -21.05)" style="fill:#e0e0e0"></path><path id="freepik--shadow--inject-211" d="M422.4,328.8a18.47,18.47,0,0,0-11.66,2,2.9,2.9,0,0,0-.95.75c-1.25,1.68,2.34,3,3.43,3.36a25.06,25.06,0,0,0,5.84,1.07,7.6,7.6,0,0,0,2.38,0,2.56,2.56,0,0,0,1.86-1.35c.36-.83.11-1.8.34-2.68s.78-1.55.44-2.27S423.05,328.88,422.4,328.8Zm-10.9,10.41c-2.63-1.9-5.61-.93-7.85,1a3.09,3.09,0,0,0-1.32,2,2.24,2.24,0,0,0,.51,1.46,3.78,3.78,0,0,0,2.85,1.55,3.37,3.37,0,0,0,2.88-1.41,4.78,4.78,0,0,1,1-1.36c.82-.53,2.12-.11,2.72-.87a1.31,1.31,0,0,0,.11-1.31A2.7,2.7,0,0,0,411.5,339.21Zm52.09-15.79a16.26,16.26,0,0,0-5.27-4.9c-7.18-4.18-15.46-.47-22.69,1.58a6.06,6.06,0,0,0-3.37,1.83,16.12,16.12,0,0,0-1.31,3.14,26.43,26.43,0,0,1-2.54,3.48c-3.16,4.64,2.61,6.61,6.21,7.14a56.6,56.6,0,0,0,16.13,0c4.68-.68,9.53-2.1,12.74-5.57C465.55,327.89,465.18,325.83,463.59,323.42Zm-48.09-5a20.25,20.25,0,0,0,7.26-12.67c0-.05,0-.09,0-.14a12.78,12.78,0,0,0-.86-6.95c-2.82-6.21-11-8.82-16.87-10.9-7.54-2.66-15.34-4.83-23.39-5-10.65-.24-21.13,3.14-30.16,8.72A77,77,0,0,0,335.41,305c-4.31,4.68-9.79,9.82-9.21,16.69a17.65,17.65,0,0,0,1.42,5.23c7.24,17.37,26.15,29.29,44.2,32.78l.29.06c8,1.5,17.26.67,21.4-7.35,2.39-4.64,2.67-10,2.66-15.27q0-4.25-.22-8.47A60.7,60.7,0,0,0,415.5,318.46Z" transform="translate(-4.27 -21.05)" style="fill:#e0e0e0"></path><polygon id="freepik--shadow--inject-211" points="176.17 218.28 276.34 276.12 176.17 333.95 76 276.12 176.17 218.28" style="fill:#e0e0e0"></polygon><g id="freepik--shadow--inject-211"><path d="M307.07,442.37,56.26,335.57a2.39,2.39,0,1,1,1.82-4.42L311.35,432a5.63,5.63,0,0,1-4.28,10.41Z" transform="translate(-4.27 -21.05)" style="fill:#e0e0e0"></path><path d="M265,460.45,38.76,308.39a2.4,2.4,0,0,1,2.62-4L271.17,451a5.63,5.63,0,0,1-6.17,9.42Z" transform="translate(-4.27 -21.05)" style="fill:#e0e0e0"></path></g></g><g id="freepik--fortune-cookie-3--inject-211"><g id="freepik--Cookie--inject-211"><path d="M349.69,220.21c4.1,0,7.57,4,5.36,25.86s-18.62,36.13-38,39.52l22.89-62.65A39.49,39.49,0,0,1,349.69,220.21Z" transform="translate(-4.27 -21.05)" style="fill:#f0997a"></path><path d="M311.8,233.25c7.68-5.4,30.19-12.63,37.89-13-7.08,2.2-1.5,14-4.55,30.12-3.78,20-9.16,26.28-17,31.07-7.16,4.39-15.64,5.87-27,3.72-15-2.86-25.11-11.76-31.36-19.72s-9.52-22.23-3.4-39.59c6.52-18.52,22.81-32.08,27.45-31.42S309.76,217.92,311.8,233.25Z" transform="translate(-4.27 -21.05)" style="fill:#ffbda7"></path><path d="M311.8,233.25c-.2-1.51-.5-3.1-.86-4.73l-.57.36a78.22,78.22,0,0,0-12.29,9.69c-3.6,3.47-6.65,7.56-11.54,9.3a.87.87,0,0,0-.59.42c-.2.58,1.53.39,1.81.37a12,12,0,0,0,4.63-1.59,57.14,57.14,0,0,0,5.2-3.52c2.54-1.79,5-3.69,7.49-5.56,1.17-.88,2.35-1.77,3.56-2.62C309.07,235.06,311.73,233.69,311.8,233.25Z" transform="translate(-4.27 -21.05)" style="fill:#f0997a"></path><path d="M339.84,231.28a6.27,6.27,0,0,0-2.27-1.4,5.83,5.83,0,0,0-1.37-.33c-.41-.05-.89,0-1.21-.3a.59.59,0,0,1-.13-.76c.32-.46,1.09-.4,1.58-.36a7.15,7.15,0,0,1,4.26,2,.77.77,0,0,1,.09,1A.67.67,0,0,1,339.84,231.28Z" transform="translate(-4.27 -21.05)" style="fill:#f0997a"></path><path d="M338.65,235.82a8.51,8.51,0,0,0-1.64-.92,9.45,9.45,0,0,0-1.87-.59,13.86,13.86,0,0,1-2.22-.45c-.44-.17-.41-.83-.1-1.11,0,0,0,0,0,0l.06,0H333l.11,0-.05,0a1.34,1.34,0,0,1,.27-.07,4.33,4.33,0,0,1,.72,0c.41,0,.82.09,1.22.16a11.11,11.11,0,0,1,2.26.68,7.66,7.66,0,0,1,1.84,1.06,3.63,3.63,0,0,1,.66.64,3,3,0,0,1,.55,1.34c0,.12,0,.24-.17.23A3.6,3.6,0,0,1,338.65,235.82Z" transform="translate(-4.27 -21.05)" style="fill:#f0997a"></path><path d="M340.75,244c.15.12-.2-.09-.24-.12a2.66,2.66,0,0,1-.42-.52,7,7,0,0,0-.7-.83,11.07,11.07,0,0,0-1.87-1.39,11.84,11.84,0,0,0-2.24-1.08,10.57,10.57,0,0,0-1.1-.31,2.67,2.67,0,0,1-1.25-.36c-.25-.21-.31-.79.05-.94a4.56,4.56,0,0,1,3,.31,14,14,0,0,1,2.41,1.22,10.06,10.06,0,0,1,1.86,1.46,3.82,3.82,0,0,1,.74,1,2.28,2.28,0,0,1,.17,1.5C341.16,244.21,340.89,244.12,340.75,244Z" transform="translate(-4.27 -21.05)" style="fill:#f0997a"></path><path d="M339.35,249.76c-.23-1.32-1.48-2.41-2.51-3.16a11.26,11.26,0,0,0-1.51-.95,8.33,8.33,0,0,0-1.05-.49,7.48,7.48,0,0,1-2.33-.9c-.21-.19-.26-.71.07-.81a5.15,5.15,0,0,1,3,.48,11,11,0,0,1,2.67,1.46c1.27.94,3.32,2.68,2.44,4.47A.38.38,0,0,1,339.35,249.76Z" transform="translate(-4.27 -21.05)" style="fill:#f0997a"></path><path d="M338.38,257.24c.06.06-.28-.12-.35-.2a3.17,3.17,0,0,1-.41-.62c-.23-.39-.43-.8-.69-1.18a9.29,9.29,0,0,0-1.88-2,12.52,12.52,0,0,0-2.54-1.51c-.95-.42-2.18-.6-2.86-1.42a.32.32,0,0,1,.07-.5,2.83,2.83,0,0,1,1.9.09,12.76,12.76,0,0,1,1.61.56,12.09,12.09,0,0,1,2.8,1.64,10,10,0,0,1,1.93,2,7.39,7.39,0,0,1,.74,1.24,3,3,0,0,1,.25.77,4.7,4.7,0,0,1-.05,1C338.9,257.49,338.55,257.41,338.38,257.24Z" transform="translate(-4.27 -21.05)" style="fill:#f0997a"></path><path d="M335.67,263.35a1.48,1.48,0,0,1-.21-.46c-.11-.31-.26-.61-.39-.92a11.9,11.9,0,0,0-.57-1.2,7.18,7.18,0,0,0-1.54-1.89,10,10,0,0,0-2.16-1.48c-.38-.19-.78-.37-1.18-.53l-.63-.25a3.08,3.08,0,0,1-.74-.47c-.2-.16-.33-.7.05-.74a6.19,6.19,0,0,1,3.27.91,9.43,9.43,0,0,1,2.55,1.78,8.08,8.08,0,0,1,1.6,2.17,4.79,4.79,0,0,1,.49,1.42,3.87,3.87,0,0,1,0,1.66C336.1,263.6,335.81,263.54,335.67,263.35Z" transform="translate(-4.27 -21.05)" style="fill:#f0997a"></path><path d="M332.55,268.81a14.4,14.4,0,0,1-1.2-2.75,8.74,8.74,0,0,0-1.32-2,7.35,7.35,0,0,0-1.93-1.58A7.52,7.52,0,0,0,327,262c-.49-.18-.95-.29-1.21-.78a.32.32,0,0,1,.06-.39c.41-.34,1.05-.16,1.51,0a6.29,6.29,0,0,1,1.34.55,8,8,0,0,1,2.44,2,9.55,9.55,0,0,1,1.42,2.4,5.1,5.1,0,0,1,.46,3.18C333,269.13,332.63,268.92,332.55,268.81Z" transform="translate(-4.27 -21.05)" style="fill:#f0997a"></path><path d="M330.19,273.85c-.36-.23-.4-.77-.5-1.15a8,8,0,0,0-1.85-3.49,8.51,8.51,0,0,0-2-1.57,10,10,0,0,0-1.17-.61,12.75,12.75,0,0,0-1.19-.54c-.58-.17-.48-1.3.17-1.13a11.81,11.81,0,0,1,1.82.53,10.7,10.7,0,0,1,1.31.66,9.38,9.38,0,0,1,2.17,1.85,7.79,7.79,0,0,1,1.4,2.29,7,7,0,0,1,.39,1.49,2.83,2.83,0,0,1-.1,1.58A.29.29,0,0,1,330.19,273.85Z" transform="translate(-4.27 -21.05)" style="fill:#f0997a"></path><path d="M326.37,277.12a3.93,3.93,0,0,1-.72-1.64,8.44,8.44,0,0,0-.34-.88,6.07,6.07,0,0,0-1.09-1.65,6.68,6.68,0,0,0-1.58-1.22,5.5,5.5,0,0,0-.95-.45,2.88,2.88,0,0,1-1.22-.58c-.18-.2-.28-.68.06-.79a2.9,2.9,0,0,1,2,.24,6.75,6.75,0,0,1,1.15.55,7.29,7.29,0,0,1,1.85,1.65,7.4,7.4,0,0,1,1.15,2,4.91,4.91,0,0,1,.28,1.19,3.1,3.1,0,0,1-.13,1.42A.27.27,0,0,1,326.37,277.12Z" transform="translate(-4.27 -21.05)" style="fill:#f0997a"></path><path d="M322.78,279.1l-.35-.37-.05-.07a1.3,1.3,0,0,1-.08-.17l-.15-.27a3.37,3.37,0,0,0-.27-.42,7.26,7.26,0,0,0-.83-.92,5.75,5.75,0,0,0-.95-.66l-.47-.25a2.94,2.94,0,0,1-.92-.54c-.2-.21-.23-.75.13-.83a3.09,3.09,0,0,1,1.83.38,6.89,6.89,0,0,1,1.26.87,5.67,5.67,0,0,1,.93,1,2.71,2.71,0,0,1,.67,1.88.51.51,0,0,1-.28.43C323.05,279.28,322.94,279.18,322.78,279.1Z" transform="translate(-4.27 -21.05)" style="fill:#f0997a"></path><path d="M318.83,280.49a.48.48,0,0,0,.18,0,.47.47,0,0,0,.3-.14.9.9,0,0,0,.08-1.09,3.09,3.09,0,0,0-.26-.37,2.53,2.53,0,0,0-.56-.52l-.28-.17a2.36,2.36,0,0,0-.28-.12,1.31,1.31,0,0,0-.59-.06c-.16,0-.27.19-.3.33a.64.64,0,0,0,.11.52.88.88,0,0,0,.23.24l-.1-.08,0,0a2.61,2.61,0,0,0,.25.23l.09.08.17.16a4.71,4.71,0,0,1,.35.41,1.5,1.5,0,0,0,.23.33l.09.07.12.09C318.84,280.53,318.87,280.53,318.83,280.49Z" transform="translate(-4.27 -21.05)" style="fill:#f0997a"></path><path d="M292.41,204.1a.52.52,0,0,1,.23-.65c.33-.14.67-.25,1-.41a4.83,4.83,0,0,0,.45-.26l.24-.17,0,0,.08-.07c.1-.1.2-.2.29-.31l0,0,0-.06.11-.18a2.53,2.53,0,0,0,.12-.33c.06-.2.1-.46.28-.59l-.12.17a.49.49,0,0,1,.14-.23.35.35,0,0,1,.39,0l.24.26-.12-.19a1,1,0,0,1,.28.56,1.63,1.63,0,0,1,0,.44,2.58,2.58,0,0,1-.2.55,2.71,2.71,0,0,1-.61.85,4.55,4.55,0,0,1-2.28,1.1C292.72,204.6,292.48,204.31,292.41,204.1Z" transform="translate(-4.27 -21.05)" style="fill:#f0997a"></path><path d="M293.1,210.14a1.71,1.71,0,0,1-1.32-.28.35.35,0,0,1,0-.56,3.69,3.69,0,0,1,1.29-.54c.33-.11.65-.21,1-.33a10.42,10.42,0,0,0,1.63-.83,8.26,8.26,0,0,0,1.39-1.11c.29-.29.56-.61.82-.92a1.49,1.49,0,0,1,.71-.58c.35-.1.62.28.63.59,0,.82-.8,1.6-1.35,2.13a10.32,10.32,0,0,1-1.65,1.29,8.94,8.94,0,0,1-1.91.88A5.13,5.13,0,0,1,293.1,210.14Z" transform="translate(-4.27 -21.05)" style="fill:#f0997a"></path><path d="M292.63,214.79c-.44,0-.71-.94-.21-1.09.82-.23,1.67-.32,2.48-.57a13.63,13.63,0,0,0,2.07-.8,13.31,13.31,0,0,0,1.88-1.15,10.72,10.72,0,0,0,.84-.67l.32-.3a3.09,3.09,0,0,0,.56-.52c.26-.46.87.15.78.52a2.2,2.2,0,0,1-.42,1,8,8,0,0,1-1.12,1,12.62,12.62,0,0,1-2.18,1.36,12,12,0,0,1-2.31.89A7,7,0,0,1,292.63,214.79Z" transform="translate(-4.27 -21.05)" style="fill:#f0997a"></path><path d="M292.29,220.25c-.38-.1-.61-.74-.16-.92a32.13,32.13,0,0,1,3.26-.75,20,20,0,0,0,5.67-2.5c.47-.28.92-.59,1.37-.89a2.54,2.54,0,0,1,1.12-.54c.2,0,.55.25.45.48a6.62,6.62,0,0,1-2.5,2.37,16.59,16.59,0,0,1-2.73,1.45,16.87,16.87,0,0,1-3,1A7.65,7.65,0,0,1,292.29,220.25Z" transform="translate(-4.27 -21.05)" style="fill:#f0997a"></path><path d="M296.31,225.67c-.7.11-1.4.21-2.11.27a2.64,2.64,0,0,1-2-.23c-.11-.09-.27-.33-.13-.47a3,3,0,0,1,1.8-.63l2-.31a26.78,26.78,0,0,0,4.07-1,14.81,14.81,0,0,0,3.18-1.47c.46-.29.9-.6,1.33-.93a10.6,10.6,0,0,1,1-.78c.2-.12.37-.08.56-.16s.47.07.4.25a3.1,3.1,0,0,1-.49,1.06,8.31,8.31,0,0,1-.65.68,10.41,10.41,0,0,1-1.56,1.17,16.84,16.84,0,0,1-3.31,1.53A25.11,25.11,0,0,1,296.31,225.67Z" transform="translate(-4.27 -21.05)" style="fill:#f0997a"></path><path d="M295.41,231.47c-.88.08-1.76.15-2.65.17a5.07,5.07,0,0,1-2.19-.21c-.28-.13-.5-.62-.14-.79a6.08,6.08,0,0,1,2.12-.39c.91-.08,1.81-.15,2.71-.25a34.43,34.43,0,0,0,4.85-.86,21.22,21.22,0,0,0,4.24-1.59c.64-.32,1.24-.7,1.86-1.08a2.3,2.3,0,0,1,1.43-.49c.08,0,.2.08.19.18-.11.75-.82,1.26-1.39,1.69a13.8,13.8,0,0,1-2.05,1.24,20.12,20.12,0,0,1-4.25,1.58A30.35,30.35,0,0,1,295.41,231.47Z" transform="translate(-4.27 -21.05)" style="fill:#f0997a"></path><path d="M295.38,236.57c-1.3.09-2.87.23-4-.55-.15-.1-.29-.44-.07-.54,1.12-.53,2.58-.29,3.79-.36a22,22,0,0,0,3.86-.59,23.57,23.57,0,0,0,3.57-1.15c.73-.31,1.45-.65,2.15-1a4.52,4.52,0,0,1,1.61-.7c.32,0,.7.46.48.75a9.72,9.72,0,0,1-3.74,2.32,23.55,23.55,0,0,1-3.83,1.27A24.56,24.56,0,0,1,295.38,236.57Z" transform="translate(-4.27 -21.05)" style="fill:#f0997a"></path><path d="M292.72,241.36a7.59,7.59,0,0,1-3.48-.33c-.23-.1-.43-.53-.09-.62a16.25,16.25,0,0,1,3.12-.29,23.68,23.68,0,0,0,3.36-.5,22.18,22.18,0,0,0,3.11-.91c.55-.21,1.08-.44,1.61-.67a3.69,3.69,0,0,1,1.58-.52c.31,0,.58.42.37.69a6.83,6.83,0,0,1-2.91,1.64,23.62,23.62,0,0,1-3.29,1A22.57,22.57,0,0,1,292.72,241.36Z" transform="translate(-4.27 -21.05)" style="fill:#f0997a"></path><path d="M272.08,235.35c-.38,3-.87,7.77,1.12,10.34,2.37,3.08,4.45-.43,4.27-3-.88-12.14,2.78-24.29,8.61-34.76.45-.82,1.51-3.83-.59-3a3.87,3.87,0,0,0-1.59,1.47A63.5,63.5,0,0,0,272.08,235.35Z" transform="translate(-4.27 -21.05)" style="fill:#fff;opacity:0.2"></path><path d="M298.82,246.39a41.44,41.44,0,0,1-5.27,3.69c-2.63,1.51-5,3.68-.35,4.34,3.37.48,7.4-1.26,10.33-2.76,4.48-2.3,8.46-5.48,12.81-8a21,21,0,0,0,4.36-3,6.63,6.63,0,0,0,1.87-4.29c.08-3-4-2.44-5.79-1.81a40.09,40.09,0,0,0-10.9,5.94c-.91.69-1.78,1.42-2.65,2.15C301.75,243.93,300.31,245.19,298.82,246.39Z" transform="translate(-4.27 -21.05)" style="fill:#fff;opacity:0.2"></path><path d="M283.49,254.27a4.7,4.7,0,0,0,3.84,1.11c1-.26,1.47-1.14.67-1.89a5.87,5.87,0,0,0-3.15-1.07C283.56,252.27,282,253,283.49,254.27Z" transform="translate(-4.27 -21.05)" style="fill:#fff;opacity:0.2"></path></g></g><g id="freepik--fortune-cookie-2--inject-211"><g id="freepik--cookie--inject-211"><path d="M448.59,297.34c-3.83-2.56-5.95-.92-5.56,2.94a18.43,18.43,0,0,1-1.07,8.18,5.61,5.61,0,0,1-1,1.9,9.21,9.21,0,0,1-2.73,1.69,3.56,3.56,0,0,0-2.09,2.32,4.74,4.74,0,0,0,.75,2.69,19.66,19.66,0,0,1,1.14,3,3.32,3.32,0,0,1,.09,2.13c-.41,1-1.56,1.37-2.55,1.76-2.36.92-1.5,2.71-2.92,4.22-.68.72-2.45,3.35-.22,3.48,6.36.39,12-.13,20-5.61S453.87,301,448.59,297.34Z" transform="translate(-4.27 -21.05)" style="fill:#f0997a"></path><path d="M448.59,297.34c6.22,3.82,12.63,16.19,14.09,21.69s.4,10.78-10.92,12.48a72.11,72.11,0,0,1-19.34.1s8.71-.54,12.31-3.38c2.37-1.88-1.33-6.46-.08-11.38s5.73-5.23,7.34-8.93S448.59,297.34,448.59,297.34Z" transform="translate(-4.27 -21.05)" style="fill:#ffbda7"></path><path d="M417.29,295.83a5.1,5.1,0,0,0,.32,1c.61,1.47,1.53,2.81,2.21,4.26a6.78,6.78,0,0,1,.71,4.5,4,4,0,0,1-2.11,2.25l-3.79,2.27a3.15,3.15,0,0,0-.94.75c-.6.79.17,2.46.1,3.43a4.11,4.11,0,0,1-1.62,2.81c-2.64,2.17-6.66,3.75-9.69,1.43s-3.83-7.1-3.83-10.79c0-9.54,4.8-20.6,11-24.18a7.43,7.43,0,0,1,6.19-.38c1.92.72,4.79,3.71,4.08,5.95a10,10,0,0,1-1.26,2.19,10,10,0,0,0-1.2,2.62,4.26,4.26,0,0,0-.22,1.54C417.25,295.58,417.27,295.7,417.29,295.83Z" transform="translate(-4.27 -21.05)" style="fill:#f0997a"></path><path d="M406.24,286.14c10,1.82,17.06,2.08,24.58-5,11.3-10.66,7.81-21.68,16.19-34.71,6.13-9.53,15.74-12.3,22.94-12.68-1.26,3.57-.42,8.87,2.84,14.15a49.42,49.42,0,0,1,4.93,11.65s-11,1.37-14.52,16.41c-2.84,12-6.26,22.82-21.57,32.41-14.57,9.12-31.8,7.74-40.75,5.84C400.88,314.2,399.11,297.31,406.24,286.14Z" transform="translate(-4.27 -21.05)" style="fill:#fafafa"></path><path d="M468.61,234.84c-.77,3.91.42,8.86,3.33,13.58a47.73,47.73,0,0,1,4.52,10.36c-3,.8-11.19,4.12-14.23,16.94-2.94,12.35-6.35,22.54-21.13,31.79-7.51,4.7-16.5,7.08-26.73,7.08a65,65,0,0,1-12.55-1.22c-.22-3.24-.75-16.68,4.92-26.13a53.06,53.06,0,0,0,9.13,1,21.38,21.38,0,0,0,15.63-6.37c6.63-6.25,8.32-12.58,10.11-19.28,1.33-5,2.7-10.12,6.24-15.62,5.9-9.17,15-11.57,20.76-12.12m1.34-1.1c-7.2.38-16.81,3.15-22.94,12.68-8.38,13-4.89,24.05-16.19,34.71-4.87,4.59-9.55,6.1-14.95,6.1a54.73,54.73,0,0,1-9.63-1.09c-7.13,11.17-5.36,28.06-5.36,28.06a65.85,65.85,0,0,0,13.49,1.39c8.41,0,18.33-1.64,27.26-7.23,15.31-9.59,18.73-20.45,21.57-32.41,3.57-15,14.52-16.41,14.52-16.41a49.42,49.42,0,0,0-4.93-11.65c-3.26-5.28-4.1-10.58-2.84-14.15Z" transform="translate(-4.27 -21.05)" style="fill:#e0e0e0"></path><path d="M387.72,352.28c-1.77,3.06-10.52,3.52-20.05-.37S335.91,339,331.44,319c0,0,49.81,18.54,54.06,23.08S389.3,348.87,387.72,352.28Z" transform="translate(-4.27 -21.05)" style="fill:#f0997a"></path><path d="M416.41,283.42c-1.89-1.1-3.75-.32-5.7.08a1.49,1.49,0,0,0-1,.52,1.35,1.35,0,0,0-.12.77c.17,3.14,2,5.9,3.53,8.66a4.35,4.35,0,0,1,.74,2.91,3.05,3.05,0,0,1-1.4,1.83,58.87,58.87,0,0,1-5.82,3,4.11,4.11,0,0,0-1.89,1.45,2.9,2.9,0,0,0,0,2.54,13.52,13.52,0,0,0,1.36,2.24,3.27,3.27,0,0,1,.61,1.54c.07,1.23-1.06,2.15-2.1,2.82s-2.21,1.48-2.31,2.71a3.25,3.25,0,0,0,.85,2.16c1.4,1.81,3.93,3.17,6.21,2.24-5.73,3.25-14.34,2.83-20.45,1,1.89,7.42,2.78,27.55-1.17,32.39.77-2.71-1-6-7.58-7.79-8.39-2.26-13.57-1.32-27.13-6.39s-18.73-9.12-22-20.52,3.72-24.83,20.86-36.27,21.46-13.14,32.61-10.65C392.8,272.53,408.89,279,416.41,283.42Z" transform="translate(-4.27 -21.05)" style="fill:#ffbda7"></path><path d="M385.22,298c-2.08-4.3-4.59-9.84-3.78-15.9-1.46,3-2.08,7.56.27,14.69s5.55,13,7.18,23.11a33.66,33.66,0,0,0,4,.91C392.62,311.17,387.31,302.29,385.22,298Z" transform="translate(-4.27 -21.05)" style="fill:#f0997a"></path><path d="M388.64,293.35a16.94,16.94,0,0,0-2.3,6.43,16.36,16.36,0,0,0-.24,3.42,9.79,9.79,0,0,0,.82,3.58c.09.21.46.36.49,0,.16-2.23,0-4.48.36-6.71a26.47,26.47,0,0,1,2.08-6.32C390.13,293.1,389,292.85,388.64,293.35Z" transform="translate(-4.27 -21.05)" style="fill:#f0997a"></path><path d="M394.17,297.72a6,6,0,0,0-1.37,1.9,26.35,26.35,0,0,0-1.21,2.44,26,26,0,0,0-1.62,5.18,27.1,27.1,0,0,0-.54,5.31,11.78,11.78,0,0,0,1,5.51c.1.19.39.23.42,0a12.29,12.29,0,0,0-.06-2.71c-.07-.91-.09-1.83-.09-2.74a25.39,25.39,0,0,1,.52-5.14,27.2,27.2,0,0,1,1.49-4.85c.32-.77.68-1.52,1.07-2.25l.59-1.06a3.14,3.14,0,0,0,.52-1.11C395,297.82,394.47,297.47,394.17,297.72Z" transform="translate(-4.27 -21.05)" style="fill:#f0997a"></path><path d="M397.57,302a4.27,4.27,0,0,0-1.19,1.59c-.32.57-.62,1.16-.89,1.75a21.85,21.85,0,0,0-1.31,3.77,23.82,23.82,0,0,0-.66,3.74,17.63,17.63,0,0,0-.09,1.92,3.89,3.89,0,0,0,.34,2c.17.25.6.4.75.05a5.71,5.71,0,0,0,.17-1.85c0-.61.05-1.23.1-1.84a22.07,22.07,0,0,1,.67-3.87,23.54,23.54,0,0,1,1.23-3.54c.24-.54.5-1.08.79-1.61s.78-1.13.75-1.68C398.21,302.12,397.84,301.81,397.57,302Z" transform="translate(-4.27 -21.05)" style="fill:#f0997a"></path><path d="M399.67,306.65a11.11,11.11,0,0,0-1.93,5.11,14.2,14.2,0,0,0-.23,2.51,7.12,7.12,0,0,0,.4,2.6c.1.25.59.46.66.08a23.13,23.13,0,0,0,.13-2.5,20.19,20.19,0,0,1,.28-2.57,18,18,0,0,1,.59-2.41,18.23,18.23,0,0,0,.8-2.47C400.42,306.69,399.89,306.38,399.67,306.65Z" transform="translate(-4.27 -21.05)" style="fill:#f0997a"></path><path d="M380.74,338.52a6.52,6.52,0,0,0,2.17-3.4c.1-.4.1-.89.44-1.16a.59.59,0,0,1,.78,0c.41.37.26,1.13.15,1.61a6.71,6.71,0,0,1-.59,1.68,7,7,0,0,1-1.87,2.31.78.78,0,0,1-1,0A.68.68,0,0,1,380.74,338.52Z" transform="translate(-4.27 -21.05)" style="fill:#f0997a"></path><path d="M376.38,336.78a8.76,8.76,0,0,0,1.12-1.52,8.93,8.93,0,0,0,.81-1.78,14.31,14.31,0,0,1,.73-2.15c.22-.41.86-.3,1.11,0,0,0,0,0,0,.05l0,.06v0s0,0,0,0a.36.36,0,0,1,0,.11l0-.06a.89.89,0,0,1,0,.28,3.37,3.37,0,0,1-.09.71c-.09.4-.19.8-.31,1.19a11.61,11.61,0,0,1-.95,2.17,7.76,7.76,0,0,1-1.28,1.69,3.61,3.61,0,0,1-.72.57,3.09,3.09,0,0,1-1.4.39c-.12,0-.23-.06-.2-.2A3.6,3.6,0,0,1,376.38,336.78Z" transform="translate(-4.27 -21.05)" style="fill:#f0997a"></path><path d="M368,337.86c-.14.13.11-.19.15-.22a2.39,2.39,0,0,1,.57-.36,7.43,7.43,0,0,0,.91-.59,10.67,10.67,0,0,0,1.6-1.69,11.48,11.48,0,0,0,1.35-2.09c.16-.34.32-.69.45-1.05a2.69,2.69,0,0,1,.51-1.2c.23-.22.81-.21.92.16a4.57,4.57,0,0,1-.68,3,13.12,13.12,0,0,1-1.51,2.24,9.54,9.54,0,0,1-1.68,1.68,4.12,4.12,0,0,1-1.08.61,2.3,2.3,0,0,1-1.51,0C367.75,338.24,367.87,338,368,337.86Z" transform="translate(-4.27 -21.05)" style="fill:#f0997a"></path><path d="M362.46,335.76c1.34-.07,2.58-1.18,3.45-2.1a12.57,12.57,0,0,0,1.13-1.38,10.13,10.13,0,0,0,.61-1c.39-.71.56-1.65,1.19-2.2.21-.19.73-.16.78.18a5.12,5.12,0,0,1-.83,2.86A11.08,11.08,0,0,1,367,334.6c-1.09,1.15-3.06,3-4.74,1.88A.39.39,0,0,1,362.46,335.76Z" transform="translate(-4.27 -21.05)" style="fill:#f0997a"></path><path d="M355.16,333.88c-.07.05.15-.26.24-.32a2.91,2.91,0,0,1,.66-.33c.42-.18.85-.34,1.26-.55a8.94,8.94,0,0,0,2.2-1.62,12.44,12.44,0,0,0,1.81-2.33c.53-.89.86-2.09,1.76-2.67a.32.32,0,0,1,.49.14,2.8,2.8,0,0,1-.33,1.87,14.44,14.44,0,0,1-.75,1.53,12,12,0,0,1-2,2.57,10.19,10.19,0,0,1-2.25,1.67,7.18,7.18,0,0,1-1.33.59,3,3,0,0,1-.79.15,4.68,4.68,0,0,1-1-.17C354.85,334.36,355,334,355.16,333.88Z" transform="translate(-4.27 -21.05)" style="fill:#f0997a"></path><path d="M349.42,330.44a1.64,1.64,0,0,1,.49-.15c.32-.08.64-.18,1-.28s.85-.25,1.26-.41a7.45,7.45,0,0,0,2.07-1.3,10.15,10.15,0,0,0,1.73-2c.24-.35.46-.72.67-1.1l.33-.6a3.17,3.17,0,0,1,.55-.67c.19-.18.74-.24.74.14a6.22,6.22,0,0,1-1.31,3.13,9.8,9.8,0,0,1-2.08,2.32,8.51,8.51,0,0,1-2.35,1.32,5,5,0,0,1-1.47.31,3.64,3.64,0,0,1-1.64-.23C349.13,330.83,349.23,330.55,349.42,330.44Z" transform="translate(-4.27 -21.05)" style="fill:#f0997a"></path><path d="M342.94,327.11a13.78,13.78,0,0,1,2.87-.85,9,9,0,0,0,2.18-1.07,7,7,0,0,0,1.8-1.72,7.15,7.15,0,0,0,.64-1c.24-.46.4-.9.91-1.1a.32.32,0,0,1,.38.11c.29.44,0,1.06-.15,1.5a6.34,6.34,0,0,1-.71,1.27,8.16,8.16,0,0,1-2.29,2.17,9.62,9.62,0,0,1-2.57,1.11,5,5,0,0,1-3.2.06C342.57,327.48,342.82,327.18,342.94,327.11Z" transform="translate(-4.27 -21.05)" style="fill:#f0997a"></path><path d="M339.05,323.46c.28-.33.82-.31,1.21-.35a8.14,8.14,0,0,0,1.48-.33,7.54,7.54,0,0,0,2.2-1.09,8.58,8.58,0,0,0,1.82-1.79,10,10,0,0,0,.74-1.09,10.65,10.65,0,0,0,.68-1.11c.25-.56,1.35-.32,1.1.3a11.61,11.61,0,0,1-.74,1.75,11.17,11.17,0,0,1-.82,1.21,9.63,9.63,0,0,1-2.1,1.93,7.62,7.62,0,0,1-2.45,1.1,6.49,6.49,0,0,1-1.52.22,2.88,2.88,0,0,1-1.56-.3A.29.29,0,0,1,339.05,323.46Z" transform="translate(-4.27 -21.05)" style="fill:#f0997a"></path><path d="M337.22,318.84a3.88,3.88,0,0,1,1.72-.51,7.28,7.28,0,0,0,.92-.23,6.18,6.18,0,0,0,1.76-.88A6.33,6.33,0,0,0,343,315.8a6.23,6.23,0,0,0,.56-.88,2.83,2.83,0,0,1,.73-1.14c.22-.16.71-.2.78.15a2.93,2.93,0,0,1-.48,1.92,6.73,6.73,0,0,1-.69,1.07,7.34,7.34,0,0,1-1.87,1.64,7.45,7.45,0,0,1-2.17.88,4.53,4.53,0,0,1-1.21.13,3.21,3.21,0,0,1-1.4-.3A.27.27,0,0,1,337.22,318.84Z" transform="translate(-4.27 -21.05)" style="fill:#f0997a"></path><path d="M336,314.53l.41-.3.08,0,.17-.07.3-.11a4.51,4.51,0,0,0,.44-.22,6.43,6.43,0,0,0,1-.71,5.26,5.26,0,0,0,.77-.86l.31-.44a3,3,0,0,1,.65-.84c.23-.17.77-.13.8.23a3,3,0,0,1-.6,1.77,6.94,6.94,0,0,1-1,1.15,5.47,5.47,0,0,1-1.13.79,2.7,2.7,0,0,1-2,.43.52.52,0,0,1-.39-.33C335.79,314.77,335.9,314.68,336,314.53Z" transform="translate(-4.27 -21.05)" style="fill:#f0997a"></path><path d="M335.32,310.05a.35.35,0,0,0-.06.18.5.5,0,0,0,.1.31.92.92,0,0,0,1.07.22l.4-.22a2.26,2.26,0,0,0,.58-.49,1.64,1.64,0,0,0,.2-.26,1.13,1.13,0,0,0,.16-.26,1.41,1.41,0,0,0,.14-.58.42.42,0,0,0-.3-.34.66.66,0,0,0-.53.05,1,1,0,0,0-.26.2l.09-.09,0,0a3,3,0,0,0-.26.22l-.09.08a1.39,1.39,0,0,1-.19.15,3.35,3.35,0,0,1-.44.29,1.31,1.31,0,0,0-.35.19l-.09.09-.11.11C335.28,310.06,335.28,310.09,335.32,310.05Z" transform="translate(-4.27 -21.05)" style="fill:#f0997a"></path><path d="M419.62,325.67a3.36,3.36,0,0,1,3.15,1.85c.91,1.63-.87,2.7-.85,4.28,0,.83.59,1.62-.25,2.27a2.39,2.39,0,0,1-1.28.4,16.72,16.72,0,0,1-7.57-1.41,11.75,11.75,0,0,1-1.56-.75,2.37,2.37,0,0,1-.61-.42,1.46,1.46,0,0,1-.3-1.35c.36-1.37,2.46-2,3.61-2.57,1.49-.7,3-1.31,4.5-2A3.4,3.4,0,0,1,419.62,325.67Z" transform="translate(-4.27 -21.05)" style="fill:#ffbda7"></path><path d="M406.19,336a4.25,4.25,0,0,0-.47.48,7.32,7.32,0,0,0-1.2,2.34,16.32,16.32,0,0,0-.55,2.05,2.45,2.45,0,0,0,0,1.42,2.27,2.27,0,0,0,1.26,1,1.94,1.94,0,0,0,2.63-.67c.39-.7.12-1.78,1.22-1.83.79,0,1.79.46,2.51-.19s-.05-1.72-.61-2.27a16.42,16.42,0,0,1-2.12-2.69,1.21,1.21,0,0,0-.33-.38,1,1,0,0,0-.61-.09A3.2,3.2,0,0,0,406.19,336Z" transform="translate(-4.27 -21.05)" style="fill:#ffbda7"></path><path d="M380.74,306.21a2.06,2.06,0,0,0,0-1.1c-.79-3.68-2.6-6.93-3.69-10.5-1.22-4-1.47-8.51.52-12.19a16.56,16.56,0,0,1,3.14-3.94c5.93-5.74-7.29-6.35-10.67-3.33-2.34,2.09-2.81,5.57-2.62,8.7a29.64,29.64,0,0,0,2,8.87,37.58,37.58,0,0,0,4.76,8.18C374.71,301.74,379.9,308.7,380.74,306.21Zm-.1,2.5c-1.8-.41-2.48,1.4-1.21,2.65a2.7,2.7,0,0,0,1.82.76,1.51,1.51,0,0,0,1.46-.73C383.27,310.1,381.75,309,380.64,308.71Z" transform="translate(-4.27 -21.05)" style="fill:#fff;opacity:0.2"></path></g></g><g id="freepik--Text--inject-211"><path d="M422.83,295.33l1.59-.5q1.06-.33,1.23.24a.56.56,0,0,1,0,.3.82.82,0,0,0-.05.14s0,.07-.1.11l-.26.16-.16.06a3.84,3.84,0,0,1-.52.2c-.24.08-.6.2-1.08.34s-1.06.3-1.76.46l.79,2.65,2.93-.88a.43.43,0,0,1,.34.06.46.46,0,0,1,.23.27c.13.44,0,.72-.36.83l-2.8.84,1.18,3.75c.14.49.05.78-.28.88s-.59-.06-.78-.49c-.07-.13-.45-1.35-1.14-3.64s-1.1-3.61-1.22-3.95c-.34.14-.58,0-.71-.44a.66.66,0,0,1,0-.43.48.48,0,0,1,.18-.3l.27-.09c.11,0,.39-.1.83-.19A15.66,15.66,0,0,0,422.83,295.33Z" transform="translate(-4.27 -21.05)" style="fill:#455a64"></path><path d="M429,292.53a2.54,2.54,0,0,1,1.9-.21,5.19,5.19,0,0,1,3.13,3,5.94,5.94,0,0,1,.57,4.62,3,3,0,0,1-1.3,1.64,2.7,2.7,0,0,1-2.42.14,5.82,5.82,0,0,1-2-1.43,8.33,8.33,0,0,1-1.36-1.92,5.2,5.2,0,0,1-.62-3.24A3.47,3.47,0,0,1,429,292.53Zm.48,1.16a2.32,2.32,0,0,0-1.37,2.83,4.52,4.52,0,0,0,.46,1.23,7,7,0,0,0,1.1,1.51,3.58,3.58,0,0,0,2,1.22,1.83,1.83,0,0,0,1.17-.19,1.56,1.56,0,0,0,.78-1.07,3.18,3.18,0,0,0,0-1.67,8.82,8.82,0,0,0-.66-1.73,5.62,5.62,0,0,0-1.58-2.06A1.66,1.66,0,0,0,429.48,293.69Z" transform="translate(-4.27 -21.05)" style="fill:#455a64"></path><path d="M439.2,297.76a.78.78,0,0,1-.28.48c-.15.12-.32.1-.53-.05-.82-1-1.63-2.07-2.42-3.11l-2.33-3a1.55,1.55,0,0,1-.14-1.85,4.62,4.62,0,0,1,1.3-1.46,3,3,0,0,1,1.14-.51,3.56,3.56,0,0,1,1.42-.07,1.62,1.62,0,0,1,1.11.61,2.16,2.16,0,0,1,.36,1.4,6.25,6.25,0,0,1-.36,1.86,7.16,7.16,0,0,1-.81,1.64,15.74,15.74,0,0,1,3.2.19,3.17,3.17,0,0,1,1.88.76.46.46,0,0,1,.06.41.65.65,0,0,1-.27.42.62.62,0,0,1-.52.1,5.16,5.16,0,0,0-2-.58,14.44,14.44,0,0,0-2.72,0l1.81,2.23A.65.65,0,0,1,439.2,297.76Zm-1.59-6.12c.34-.93.38-1.56.13-1.9a1.1,1.1,0,0,0-1.1-.4,3.18,3.18,0,0,0-1.4.63,3.52,3.52,0,0,0-1,1c.3.41,1,1.32,2,2.71A4.85,4.85,0,0,0,437.61,291.64Z" transform="translate(-4.27 -21.05)" style="fill:#455a64"></path><path d="M437.89,286.65l4-4.55c.26-.15.47-.16.61,0,.37.33.42.65.14,1-.5.55-1,1.15-1.56,1.8.6.61,1.06,1.07,1.38,1.36l.61.56,3.93,3.52c.23.21.3.39.23.54a1.48,1.48,0,0,1-.26.37.46.46,0,0,1-.69,0q-.9-.72-3.24-2.85c-1.55-1.42-2.46-2.3-2.74-2.63l-.62.7-1,1.11a.49.49,0,0,1-.37.18.53.53,0,0,1-.36-.15.69.69,0,0,1-.19-.43A.7.7,0,0,1,437.89,286.65Z" transform="translate(-4.27 -21.05)" style="fill:#455a64"></path><path d="M445.48,275.15a.59.59,0,0,1,0-.52.53.53,0,0,1,.43-.27,15.56,15.56,0,0,1,2.69,1.18l1,.54a12.52,12.52,0,0,1,1.32.77l.41.32c.15.12.27.21.34.28l.31.29a3.58,3.58,0,0,1,.64.89,3.52,3.52,0,0,1,.6,1.67,2.7,2.7,0,0,1-.29,1.54,2.49,2.49,0,0,1-1.32,1.05,5.16,5.16,0,0,1-2.08.37,7.58,7.58,0,0,1-3.47-1c-.41-.22-1.36-.81-2.84-1.78A1.12,1.12,0,0,1,443,280a.69.69,0,0,1,0-.48c.11-.2.3-.24.59-.14,1.46.94,2.38,1.53,2.79,1.75a6.44,6.44,0,0,0,2.88.83,4.73,4.73,0,0,0,1.71-.21,1.74,1.74,0,0,0,1-.75c.31-.56.13-1.27-.51-2.13a3.8,3.8,0,0,0-1.29-1.06,2,2,0,0,1-.36-.22l-1.72-1a14.59,14.59,0,0,0-2.32-1A.81.81,0,0,1,445.48,275.15Z" transform="translate(-4.27 -21.05)" style="fill:#455a64"></path><path d="M447.54,265.66a.64.64,0,0,1,.36-.32.69.69,0,0,1,.51,0c3.56,1.63,5.72,2.59,6.48,2.9l1.16.47a1.17,1.17,0,0,1,.49.42.48.48,0,0,1,.1.48,1.43,1.43,0,0,1-.16.29,1.26,1.26,0,0,1-.13.17.5.5,0,0,1-.18.11l-.2.07a1.18,1.18,0,0,1-.28.05l-.32,0-.41,0-1.2.06-1.65.1a22.59,22.59,0,0,0-4,.58,55.32,55.32,0,0,1,6,3.05c.21.13.24.35.1.66a.69.69,0,0,1-.27.31.48.48,0,0,1-.42,0l-2.66-1.34c-1.61-.81-2.61-1.31-3-1.5l-.77-.35c-.65-.3-1-.51-1-.65a.52.52,0,0,1,0-.37c.22-.5,1.39-.89,3.5-1.17q.62-.09,2.52-.24t2.34-.15l-5.74-2.42c-.78-.36-1.19-.65-1.22-.87A.72.72,0,0,1,447.54,265.66Z" transform="translate(-4.27 -21.05)" style="fill:#455a64"></path><path d="M452.92,264.49a.45.45,0,0,1-.45,0,.72.72,0,0,1-.3-.38c-.88-.49-1.79-1-2.73-1.61a1.06,1.06,0,0,1-.3-.51,1,1,0,0,1,.11-.58c.74-1.09,1.52-2.29,2.32-3.6.27-.28.51-.36.72-.23s.36.7,0,1.43c-.1.2-.22.4-.36.63l-.51.83c-.1.16-.41.58-.93,1.27,1.06.66,1.81,1.09,2.23,1.31l1.62-2.6c.24-.27.48-.34.69-.21a.67.67,0,0,1,.28.69.54.54,0,0,1,0,.17l-1.39,2.18a1.67,1.67,0,0,0-.18.35l2.22,1.3c.5.31.84.54,1,.69l2.45-3.25c.21-.25.41-.31.6-.2a.65.65,0,0,1,.27.41.86.86,0,0,1,0,.55l-2.63,3.57a.73.73,0,0,1-.36.35.59.59,0,0,1-.43-.11,8.89,8.89,0,0,0-1.12-.76l-.89-.55Z" transform="translate(-4.27 -21.05)" style="fill:#455a64"></path></g><g id="freepik--fortune-cookie-1--inject-211"><g id="freepik--cookie--inject-211"><path d="M252.22,380.08c-.57,4.25,3.05,8.41,26,9.29s49-7.12,55.35-26.69l-77.06,7.69A40.19,40.19,0,0,0,252.22,380.08Z" transform="translate(-4.27 -21.05)" style="fill:#f0997a"></path><path d="M264.15,356.28a48.61,48.61,0,0,0-11.93,23.8c3.3-7,23.23.93,40.36.57,20.1-.42,30.54-4.87,38.45-14.63s6.09-13.15-1.9-20.72c-7.24-6.87-12.73-16.79-20.05-24.41s-18.23-12.37-41.2-3.58S228.46,339.13,228.46,344,256.29,356.28,264.15,356.28Z" transform="translate(-4.27 -21.05)" style="fill:#ffbda7"></path><path d="M282.77,336.15c2.45-5,2.33-10,1.27-10.44s-.39,7.91-8.29,14.69c-7.07,6.06-12.85,11.63-15.5,15.54a29.49,29.49,0,0,0,3.9.34C269.69,349.6,279.14,343.62,282.77,336.15Z" transform="translate(-4.27 -21.05)" style="fill:#f0997a"></path><path d="M272.75,370.82a6.45,6.45,0,0,1-1.12-2.54,6.66,6.66,0,0,1-.14-1.47c0-.43.14-.92-.14-1.29a.61.61,0,0,0-.77-.25c-.52.26-.57,1.07-.59,1.59a7.22,7.22,0,0,0,.14,1.85,7.6,7.6,0,0,0,1.26,2.83.8.8,0,0,0,1,.24A.7.7,0,0,0,272.75,370.82Z" transform="translate(-4.27 -21.05)" style="fill:#f0997a"></path><path d="M277.62,370.25a8.5,8.5,0,0,1-.72-1.83,9.92,9.92,0,0,1-.34-2,14.25,14.25,0,0,0-.14-2.36c-.12-.48-.8-.54-1.14-.26l0,0-.05.05,0,0a0,0,0,0,1,0,0l-.06.11,0,0a.88.88,0,0,0-.1.27,3.07,3.07,0,0,0-.1.74c0,.43,0,.86,0,1.29a11.92,11.92,0,0,0,.38,2.44,7.74,7.74,0,0,0,.83,2,3.89,3.89,0,0,0,.56.77,3.09,3.09,0,0,0,1.32.77.17.17,0,0,0,.25-.14A3.73,3.73,0,0,0,277.62,370.25Z" transform="translate(-4.27 -21.05)" style="fill:#f0997a"></path><path d="M285.77,373.61c.11.17-.06-.22-.09-.26a2.11,2.11,0,0,0-.47-.52,6.78,6.78,0,0,1-.76-.84,10.79,10.79,0,0,1-1.16-2.14,11.85,11.85,0,0,1-.79-2.47,9.31,9.31,0,0,1-.17-1.18,2.74,2.74,0,0,0-.19-1.34c-.18-.29-.76-.44-1-.09a4.74,4.74,0,0,0-.12,3.2,13.69,13.69,0,0,0,.91,2.66,9.48,9.48,0,0,0,1.24,2.14,4.46,4.46,0,0,0,.92.92,2.44,2.44,0,0,0,1.53.38C285.92,374.07,285.88,373.77,285.77,373.61Z" transform="translate(-4.27 -21.05)" style="fill:#f0997a"></path><path d="M291.93,373c-1.33-.44-2.28-1.89-2.91-3.06a11.64,11.64,0,0,1-.76-1.69,9.65,9.65,0,0,1-.35-1.16,7.55,7.55,0,0,0-.6-2.55c-.16-.24-.7-.36-.84,0a5.33,5.33,0,0,0,.07,3.11,11.2,11.2,0,0,0,1.11,3c.79,1.45,2.29,3.83,4.28,3.18A.4.4,0,0,0,291.93,373Z" transform="translate(-4.27 -21.05)" style="fill:#f0997a"></path><path d="M299.8,373.08c.05.07-.08-.31-.15-.39a3.66,3.66,0,0,0-.59-.52c-.37-.29-.76-.56-1.11-.88a9.55,9.55,0,0,1-1.78-2.23,12.73,12.73,0,0,1-1.19-2.85c-.3-1-.31-2.33-1.05-3.16a.34.34,0,0,0-.54,0,3,3,0,0,0-.18,2,15.05,15.05,0,0,0,.35,1.75,12.17,12.17,0,0,0,1.29,3.12,10.87,10.87,0,0,0,1.81,2.3,8.41,8.41,0,0,0,1.19.95,3.24,3.24,0,0,0,.75.36,4.49,4.49,0,0,0,1,.09C300,373.65,300,373.28,299.8,373.08Z" transform="translate(-4.27 -21.05)" style="fill:#f0997a"></path><path d="M306.52,371.16a2.11,2.11,0,0,0-.45-.28c-.31-.16-.6-.36-.9-.54a12.7,12.7,0,0,1-1.15-.76,7.55,7.55,0,0,1-1.74-1.87,10.75,10.75,0,0,1-1.21-2.45c-.15-.42-.27-.85-.38-1.29-.05-.23-.11-.46-.17-.69a2.84,2.84,0,0,0-.38-.83c-.13-.24-.68-.44-.77-.06a6.45,6.45,0,0,0,.47,3.51,10.14,10.14,0,0,0,1.46,2.9,8.78,8.78,0,0,0,2,2,5.13,5.13,0,0,0,1.4.71,3.84,3.84,0,0,0,1.71.22C306.71,371.64,306.68,371.33,306.52,371.16Z" transform="translate(-4.27 -21.05)" style="fill:#f0997a"></path><path d="M312.61,368.72a15,15,0,0,0-2.67-1.63,9.14,9.14,0,0,1-1.9-1.66,7.63,7.63,0,0,1-1.36-2.23,7.83,7.83,0,0,1-.37-1.19c-.11-.53-.15-1-.62-1.36a.33.33,0,0,0-.41,0c-.41.37-.32,1.06-.25,1.56a7.25,7.25,0,0,0,.36,1.46,8.73,8.73,0,0,0,1.73,2.82,10.21,10.21,0,0,0,2.28,1.81,5.32,5.32,0,0,0,3.22.93C312.88,369.2,312.71,368.82,312.61,368.72Z" transform="translate(-4.27 -21.05)" style="fill:#f0997a"></path><path d="M318.17,367c-.2-.4-.75-.52-1.13-.68a9.36,9.36,0,0,1-1.41-.72,8.65,8.65,0,0,1-1.92-1.7,8.82,8.82,0,0,1-1.34-2.3,11.1,11.1,0,0,1-.46-1.3,12.22,12.22,0,0,1-.38-1.31c-.1-.62-1.28-.68-1.2,0a13.35,13.35,0,0,0,.28,2,11.66,11.66,0,0,0,.5,1.44,9.8,9.8,0,0,0,1.59,2.51,8.07,8.07,0,0,0,2.17,1.78,7.4,7.4,0,0,0,1.48.63,3,3,0,0,0,1.65.12A.3.3,0,0,0,318.17,367Z" transform="translate(-4.27 -21.05)" style="fill:#f0997a"></path><path d="M322.1,363.54a4.18,4.18,0,0,0-1.59-1,9.17,9.17,0,0,1-.87-.48,6.25,6.25,0,0,1-1.54-1.36,6.87,6.87,0,0,1-1-1.82,5.66,5.66,0,0,1-.32-1,3.11,3.11,0,0,0-.43-1.35c-.18-.21-.66-.39-.83-.05a3.1,3.1,0,0,0,0,2.06,7,7,0,0,0,1.84,3.42,7.94,7.94,0,0,0,2,1.49,5,5,0,0,0,1.18.45,3.27,3.27,0,0,0,1.49.08A.29.29,0,0,0,322.1,363.54Z" transform="translate(-4.27 -21.05)" style="fill:#f0997a"></path><path d="M324.66,360.12l-.33-.41-.07-.07-.15-.11-.27-.2a3.17,3.17,0,0,1-.39-.34,6.6,6.6,0,0,1-.83-1,6,6,0,0,1-.55-1.07c-.06-.17-.13-.35-.19-.53a3.14,3.14,0,0,0-.42-1c-.19-.24-.75-.35-.88,0a3.21,3.21,0,0,0,.13,1.95,6.85,6.85,0,0,0,.72,1.43,5.48,5.48,0,0,0,.93,1.11,2.82,2.82,0,0,0,1.85,1,.53.53,0,0,0,.48-.22C324.81,360.43,324.73,360.3,324.66,360.12Z" transform="translate(-4.27 -21.05)" style="fill:#f0997a"></path><path d="M326.67,356.1l-.07-.14-.07-.11a1.19,1.19,0,0,0-.31-.28c-.13-.13-.24-.28-.36-.42l-.15-.2a.61.61,0,0,0-.07-.1,2.61,2.61,0,0,0-.2-.3l0,0,.08.12a.73.73,0,0,0-.22-.27.68.68,0,0,0-.52-.2.43.43,0,0,0-.39.26,1.67,1.67,0,0,0,0,.63,1.71,1.71,0,0,0,.09.3,3.05,3.05,0,0,0,.13.32,2.73,2.73,0,0,0,.46.65,3.4,3.4,0,0,0,.34.32,1,1,0,0,0,1.14.07.41.41,0,0,0,.18-.28.34.34,0,0,0,0-.2C326.71,356.29,326.71,356.25,326.67,356.1Z" transform="translate(-4.27 -21.05)" style="fill:#f0997a"></path><path d="M234.18,342.43a.54.54,0,0,0-.62.36c-.08.36-.12.74-.23,1.09a4.36,4.36,0,0,1-.17.51,2.39,2.39,0,0,1-.13.28v0l-.06.1a4.06,4.06,0,0,1-.26.36l0,0,0,.05-.17.14a1.35,1.35,0,0,1-.31.19c-.19.11-.45.19-.55.41l.16-.16a.43.43,0,0,0-.21.19.36.36,0,0,0,.08.39l.31.21-.21-.1a1,1,0,0,0,.63.18,1.74,1.74,0,0,0,.45-.11,2.31,2.31,0,0,0,.52-.31,2.82,2.82,0,0,0,.75-.79,4.82,4.82,0,0,0,.68-2.56C234.75,342.64,234.42,342.45,234.18,342.43Z" transform="translate(-4.27 -21.05)" style="fill:#f0997a"></path><path d="M240.51,341.93a1.78,1.78,0,0,0-.55-1.3.37.37,0,0,0-.58.06,3.9,3.9,0,0,0-.3,1.44c-.05.35-.09.7-.15,1.05a9.67,9.67,0,0,1-.52,1.84,8.67,8.67,0,0,1-.87,1.65c-.24.35-.51.69-.78,1a1.65,1.65,0,0,0-.45.84c0,.38.41.59.73.53.84-.15,1.48-1.13,1.92-1.81a10.51,10.51,0,0,0,1-1.95,9.54,9.54,0,0,0,.53-2.12A5.81,5.81,0,0,0,240.51,341.93Z" transform="translate(-4.27 -21.05)" style="fill:#f0997a"></path><path d="M245.18,340.53c-.14-.44-1.1-.54-1.15,0-.08.88,0,1.77-.1,2.65a13.45,13.45,0,0,1-.41,2.28,12.66,12.66,0,0,1-.81,2.15,9.33,9.33,0,0,1-.52,1c-.07.14-.16.26-.24.39a3.11,3.11,0,0,1-.42.68c-.42.36.32.87.69.7a2.29,2.29,0,0,0,.95-.64,8.52,8.52,0,0,0,.78-1.34,13.07,13.07,0,0,0,1-2.5,12.19,12.19,0,0,0,.45-2.54A7.28,7.28,0,0,0,245.18,340.53Z" transform="translate(-4.27 -21.05)" style="fill:#f0997a"></path><path d="M250.71,339.1c-.18-.37-.88-.48-1,0a34,34,0,0,0-.13,3.5,21,21,0,0,1-.48,3.26,22,22,0,0,1-.95,3.05c-.2.53-.42,1.05-.64,1.58a2.63,2.63,0,0,0-.34,1.25c0,.21.37.52.59.36a6.84,6.84,0,0,0,1.93-3,19.8,19.8,0,0,0,1.39-6.4A7.78,7.78,0,0,0,250.71,339.1Z" transform="translate(-4.27 -21.05)" style="fill:#f0997a"></path><path d="M257.06,342.14c0-.74-.06-1.48-.13-2.21a2.84,2.84,0,0,0-.63-2c-.11-.1-.39-.22-.51-.05a3.15,3.15,0,0,0-.28,2c0,.7.06,1.41.07,2.11a28.87,28.87,0,0,1-.19,4.36,15.48,15.48,0,0,1-.87,3.55c-.21.53-.44,1-.69,1.55a9.3,9.3,0,0,0-.61,1.17c-.08.22,0,.4-.05.6s.16.47.34.36a3.09,3.09,0,0,0,1-.7,7.4,7.4,0,0,0,.57-.81,10.66,10.66,0,0,0,.89-1.83,16.9,16.9,0,0,0,.92-3.69A26.08,26.08,0,0,0,257.06,342.14Z" transform="translate(-4.27 -21.05)" style="fill:#f0997a"></path><path d="M262.83,340.07c-.09-.92-.19-1.84-.35-2.75a5.11,5.11,0,0,0-.65-2.2c-.19-.26-.73-.4-.83,0a6.6,6.6,0,0,0,0,2.26c.1.94.21,1.88.28,2.83a35.26,35.26,0,0,1,.08,5.14,21.63,21.63,0,0,1-.78,4.65c-.21.72-.48,1.42-.74,2.12a2.31,2.31,0,0,0-.22,1.56c0,.09.13.2.22.16.75-.26,1.13-1.08,1.46-1.76a16.46,16.46,0,0,0,.87-2.34,21.1,21.1,0,0,0,.77-4.67A31,31,0,0,0,262.83,340.07Z" transform="translate(-4.27 -21.05)" style="fill:#f0997a"></path><path d="M269,338.93c-.17-1.35-.34-3-1.36-4-.13-.13-.51-.21-.57,0-.32,1.25.22,2.7.38,3.95a23.19,23.19,0,0,1,.17,4.08,24.2,24.2,0,0,1-.48,3.88c-.17.81-.37,1.62-.61,2.41a4.9,4.9,0,0,0-.4,1.79c0,.33.62.63.87.34a10,10,0,0,0,1.64-4.29,25.57,25.57,0,0,0,.54-4.18A26,26,0,0,0,269,338.93Z" transform="translate(-4.27 -21.05)" style="fill:#f0997a"></path><path d="M274.12,335.91a8.08,8.08,0,0,0-1-3.51c-.14-.21-.63-.33-.65,0a16.3,16.3,0,0,0,.32,3.26,26.29,26.29,0,0,1,.16,3.55,23.73,23.73,0,0,1-.32,3.36c-.11.6-.24,1.19-.37,1.79a3.93,3.93,0,0,0-.22,1.72.48.48,0,0,0,.78.24,7.15,7.15,0,0,0,1.1-3.31,23.77,23.77,0,0,0,.39-3.57A21.13,21.13,0,0,0,274.12,335.91Z" transform="translate(-4.27 -21.05)" style="fill:#f0997a"></path><path d="M278.92,336a23.85,23.85,0,0,0-.28-3,5.38,5.38,0,0,0-.95-2.83c-.13-.14-.5-.21-.57,0a7.86,7.86,0,0,0,.25,3c.12.94.19,1.88.22,2.82s0,1.82-.06,2.73a7.3,7.3,0,0,0,0,3c.06.17.41.47.58.24a5.68,5.68,0,0,0,.77-2.95A26.24,26.24,0,0,0,278.92,336Z" transform="translate(-4.27 -21.05)" style="fill:#f0997a"></path><g style="opacity:0.2"><path d="M296.53,318.89c-2.79-3.82-16.43-6.06-11.62,1.08a17.2,17.2,0,0,1,2.36,4.71c1.23,4.18,0,8.75-2.12,12.56s-5,7.1-7.57,10.65a1,1,0,0,0-.28.7c.09.61,1,.58,1.57.35a31.58,31.58,0,0,0,18.44-20.6C298.19,325.18,298.47,321.53,296.53,318.89Zm-21.1,31.66c-1.19,0-3,.84-2.69,2.29a1.54,1.54,0,0,0,1.33,1.05,2.8,2.8,0,0,0,2-.37C277.65,352.52,277.36,350.52,275.43,350.55Z" transform="translate(-4.27 -21.05)" style="fill:#fff"></path></g></g></g><g id="freepik--Box--inject-211"><g id="freepik--box--inject-211"><polygon points="175.73 321.51 175.73 311.37 254.81 265.71 254.81 275.86 175.73 321.51" style="fill:#24E8DD"></polygon><polygon points="175.73 321.51 175.73 311.37 254.81 265.71 254.81 275.86 175.73 321.51" style="fill:#fff;opacity:0.75"></polygon><polygon points="175.73 314.8 175.73 311.37 254.81 265.71 254.81 269.14 175.73 314.8" style="fill:#24E8DD;opacity:0.7000000000000001"></polygon><polygon points="175.73 311.37 175.73 189.62 272.38 133.82 254.81 265.71 175.73 311.37" style="fill:#24E8DD"></polygon><polygon points="175.73 311.37 175.73 189.62 272.38 133.82 254.81 265.71 175.73 311.37" style="fill:#fff;opacity:0.75"></polygon><polygon points="96.65 275.86 96.65 265.71 175.73 311.37 175.73 321.51 96.65 275.86" style="fill:#24E8DD"></polygon><polygon points="96.65 275.86 96.65 265.71 175.73 311.37 175.73 321.51 96.65 275.86" style="fill:#fff;opacity:0.5"></polygon><polygon points="96.65 269.14 96.65 265.71 175.73 311.37 175.73 314.8 96.65 269.14" style="fill:#24E8DD"></polygon><polygon points="175.73 311.37 175.73 189.62 79.08 133.82 96.65 265.72 175.73 311.37" style="fill:#24E8DD"></polygon><polygon points="175.73 311.37 175.73 189.62 79.08 133.82 96.65 265.72 175.73 311.37" style="fill:#fff;opacity:0.5"></polygon><polygon points="175.73 189.62 175.73 78.02 272.38 133.82 175.73 189.62" style="fill:#24E8DD"></polygon><polygon points="175.73 189.62 175.73 78.02 272.38 133.82 175.73 189.62" style="fill:#fff;opacity:0.6000000000000001"></polygon><polygon points="79.08 133.82 175.73 78.02 175.73 189.62 79.08 133.82" style="fill:#24E8DD"></polygon><polygon points="79.08 133.82 175.73 78.02 175.73 189.62 79.08 133.82" style="fill:#fff;opacity:0.7000000000000001"></polygon><polygon points="175.73 189.62 105.44 179.47 61.51 164.26 0 128.75 8.79 123.67 79.08 133.82 175.73 189.62" style="fill:#24E8DD"></polygon><polygon points="175.73 189.62 105.44 179.47 61.51 164.26 0 128.75 8.79 123.67 79.08 133.82 175.73 189.62" style="fill:#fff;opacity:0.8"></polygon><path d="M223.94,33.11l26.35-5.35,17.6,10.15L271.82,32l8.64-2,15.1,8.72c.86,3.65,1.3,5.57,2.16,9.22l-3.48,5.25L311.8,63.27l8.79,25.65-43.94,65.94L180,99.06Z" transform="translate(-4.27 -21.05)" style="fill:#24E8DD"></path><path d="M223.94,33.11l26.35-5.35,17.6,10.15L271.82,32l8.64-2,15.1,8.72c.86,3.65,1.3,5.57,2.16,9.22l-3.48,5.25L311.8,63.27l8.79,25.65-43.94,65.94L180,99.06Z" transform="translate(-4.27 -21.05)" style="fill:#fff;opacity:0.8"></path><polygon points="272.38 133.82 179.54 191.39 175.73 311.37 175.73 189.62 272.38 133.82" style="fill:#fff;opacity:0.30000000000000004"></polygon><path d="M239.72,263.65h0l2.64-1.53-2.44-.74.8-9.37L209.3,270.23l-.82,9.36h0l-2.84,3.81,2.65-1.53h0Zm-32.78,4.73,36.72-21.28-2.44-.75.79-9.26-31.42,18.22-.8,9.25h0Zm35.88-38.68c-11.23,3.46-13-4.47-14-11.92-2.52,9.51-5.92,20.41-17.7,30.24s-11.38,1.39-11.38,1.39-.83,9.5,5.88,5.62l21-12.12h0l21-12.12c6.72-3.87,7.55-13.37,7.55-13.37S254.05,226.25,242.82,229.7ZM199.52,296l47.26-27.29.55-6.25L200.07,289.7Z" transform="translate(-4.27 -21.05)" style="fill:#24E8DD"></path></g></g><g id="freepik--Chopsticks--inject-211"><g id="freepik--chopsticks--inject-211"><path d="M307.72,435.15,56.91,328.36a2.39,2.39,0,1,1,1.82-4.42L312,424.75a5.62,5.62,0,0,1-4.28,10.4Z" transform="translate(-4.27 -21.05)" style="fill:#455a64"></path><polygon points="104.8 322.93 75.22 311.16 98.67 326.92 135.85 342.75 104.8 322.93" style="fill:#37474f"></polygon><path d="M307.72,435.15l-65.8-28c-2-3.56.09-8.12,3.63-8.83L312,424.75a5.62,5.62,0,0,1-4.28,10.4Z" transform="translate(-4.27 -21.05)" style="fill:#24E8DD"></path><path d="M267.41,418l-1.93-.82c0-.25,0-.49,0-.73a13.64,13.64,0,0,1,1.07-4.31,11.43,11.43,0,0,1,2.22-3.39c.25-.26.54-.56.87-.85l1.78.71a9,9,0,0,0-.89.74,9.78,9.78,0,0,0-2.08,3,12.66,12.66,0,0,0-1,3.88A17.27,17.27,0,0,0,267.41,418Z" transform="translate(-4.27 -21.05)" style="fill:#455a64"></path><path d="M264.19,406.71a10.15,10.15,0,0,0-2.09,3,12.64,12.64,0,0,0-1,3.88c-.06.56-.08,1.11-.09,1.67l-1.93-.82c0-.22,0-.43,0-.64a13.64,13.64,0,0,1,1.07-4.31,11.46,11.46,0,0,1,2.23-3.39c.23-.24.5-.52.79-.79L265,406A7.59,7.59,0,0,0,264.19,406.71Z" transform="translate(-4.27 -21.05)" style="fill:#455a64"></path><path d="M265.61,453.73,39.37,301.67a2.39,2.39,0,0,1,2.62-4L271.78,444.32a5.63,5.63,0,1,1-6.17,9.41Z" transform="translate(-4.27 -21.05)" style="fill:#455a64"></path><path d="M265.61,453.73l-59.36-39.89c-1.27-3.88,1.62-8,5.24-8l60.29,38.48a5.63,5.63,0,1,1-6.17,9.41Z" transform="translate(-4.27 -21.05)" style="fill:#24E8DD"></path><path d="M229.25,429.29l-1.74-1.17c.05-.24.09-.47.15-.71a13.94,13.94,0,0,1,1.86-4,11.68,11.68,0,0,1,2.83-2.91,11.8,11.8,0,0,1,1-.67l1.62,1a6.65,6.65,0,0,0-1,.56,9.85,9.85,0,0,0-2.62,2.57,12.61,12.61,0,0,0-1.69,3.62C229.49,428.15,229.36,428.72,229.25,429.29Z" transform="translate(-4.27 -21.05)" style="fill:#455a64"></path><path d="M228.21,417.61a10,10,0,0,0-2.62,2.57,12.5,12.5,0,0,0-1.68,3.63,15.94,15.94,0,0,0-.4,1.62l-1.74-1.17c0-.2.08-.41.14-.62a13.56,13.56,0,0,1,1.86-4,11.64,11.64,0,0,1,2.82-2.91c.27-.2.59-.41.93-.63l1.61,1A7.46,7.46,0,0,0,228.21,417.61Z" transform="translate(-4.27 -21.05)" style="fill:#455a64"></path><path d="M46.14,300.32s45.64,30.43,87.34,58S234,420.27,234,420.27l-.33-.26L46.14,300.32Z" transform="translate(-4.27 -21.05)" style="fill:#fff;opacity:0.30000000000000004"></path></g></g></svg>